<svg width="98" height="28" viewBox="0 0 98 28" fill="none" xmlns="http://www.w3.org/2000/svg">
<path d="M2.71478 23.8921C2.61993 23.7591 2.49151 23.6497 2.32895 23.5649C2.16668 23.48 1.9837 23.4373 1.78057 23.4373C1.67229 23.4373 1.56289 23.4524 1.45238 23.4823C1.34158 23.5119 1.24142 23.5603 1.15105 23.627C1.06068 23.6936 0.987371 23.7762 0.930854 23.8747C0.874337 23.9741 0.846358 24.0917 0.846358 24.2298C0.846358 24.3631 0.872378 24.4741 0.924419 24.5638C0.97618 24.6535 1.04613 24.7293 1.13426 24.7914C1.22211 24.8532 1.32591 24.9067 1.44538 24.9497C1.56513 24.9933 1.69244 25.0383 1.82813 25.0844C1.99069 25.1345 2.15521 25.1918 2.32224 25.2564C2.48899 25.321 2.64036 25.4053 2.77549 25.5116C2.91119 25.6169 3.02171 25.749 3.1076 25.9074C3.19322 26.0663 3.23631 26.2668 3.23631 26.5105C3.23631 26.7631 3.18958 26.9824 3.09725 27.1686C3.00492 27.3546 2.88181 27.5084 2.72821 27.6299C2.57489 27.7518 2.39778 27.8424 2.19689 27.9025C1.99601 27.962 1.78952 27.9916 1.57744 27.9916C1.27527 27.9916 0.982894 27.9324 0.700868 27.8128C0.418842 27.6935 0.18522 27.5169 0 27.2822L0.521524 26.8343C0.634279 27.0043 0.785364 27.1421 0.97506 27.2475C1.16448 27.3534 1.36984 27.4064 1.59115 27.4064C1.70391 27.4064 1.81694 27.3899 1.92942 27.358C2.04245 27.3261 2.14513 27.2751 2.23774 27.2068C2.33007 27.1376 2.40589 27.0513 2.46437 26.9479C2.52285 26.8443 2.55222 26.7195 2.55222 26.5723C2.55222 26.4254 2.52201 26.3026 2.46101 26.2041C2.40002 26.1053 2.31748 26.0213 2.21396 25.9521C2.10988 25.8832 1.98929 25.8251 1.85192 25.7767C1.71398 25.7285 1.56821 25.679 1.41517 25.6289C1.26156 25.5827 1.11048 25.5261 0.961351 25.46C0.812504 25.3931 0.679325 25.3079 0.562094 25.2046C0.444583 25.1015 0.350015 24.9739 0.277829 24.8224C0.205644 24.6709 0.169551 24.4824 0.169551 24.2571C0.169551 24.014 0.217955 23.8052 0.315041 23.6304C0.411848 23.4561 0.538312 23.3111 0.693874 23.1964C0.849715 23.0813 1.02598 22.9976 1.22211 22.9446C1.41852 22.8917 1.61577 22.8655 1.81442 22.8655C2.09421 22.8655 2.35609 22.9159 2.59951 23.017C2.8432 23.1184 3.03989 23.2542 3.18846 23.4233L2.71478 23.8921Z" fill="#24A8E0"/>
<path d="M7.61269 22.0539C7.61269 21.9432 7.65214 21.8458 7.73104 21.7612C7.81022 21.6761 7.91038 21.6331 8.03237 21.6331C8.14988 21.6331 8.24893 21.6735 8.33035 21.7538C8.41148 21.8344 8.45233 21.9343 8.45233 22.0539C8.45233 22.1687 8.41148 22.2664 8.33035 22.3464C8.24893 22.4273 8.14988 22.4671 8.03237 22.4671C7.91038 22.4671 7.81022 22.425 7.73104 22.3399C7.65214 22.2544 7.61269 22.1593 7.61269 22.0539ZM6.29937 22.0539C6.29937 21.9432 6.3391 21.8458 6.41772 21.7612C6.4969 21.6761 6.59734 21.6331 6.71905 21.6331C6.83656 21.6331 6.93588 21.6735 7.01702 21.7538C7.09816 21.8344 7.13901 21.9343 7.13901 22.0539C7.13901 22.1687 7.09816 22.2664 7.01702 22.3464C6.93588 22.4273 6.83656 22.4671 6.71905 22.4671C6.59734 22.4671 6.4969 22.425 6.41772 22.3399C6.3391 22.2544 6.29937 22.1593 6.29937 22.0539ZM7.37571 27.9999C7.05983 27.9999 6.78452 27.9458 6.55006 27.8382C6.31531 27.7302 6.12114 27.5867 5.96782 27.4076C5.81421 27.2282 5.70034 27.0229 5.62592 26.7908C5.55149 26.5587 5.51428 26.3189 5.51428 26.0706V22.9974H6.18465V26.0293C6.18465 26.1948 6.20452 26.3591 6.24537 26.5223C6.28594 26.6854 6.35253 26.8312 6.44514 26.9597C6.53747 27.0881 6.65945 27.1917 6.81054 27.2695C6.9619 27.3478 7.1502 27.3871 7.37571 27.3871C7.59702 27.3871 7.78448 27.3478 7.9378 27.2695C8.09113 27.1917 8.21395 27.0881 8.30656 26.9597C8.39917 26.8312 8.46576 26.6854 8.50633 26.5223C8.54718 26.3591 8.56733 26.1948 8.56733 26.0293V22.9974H9.23742V26.0706C9.23742 26.3189 9.20021 26.5587 9.12578 26.7908C9.05136 27.0229 8.93748 27.2282 8.78416 27.4076C8.63056 27.5867 8.43638 27.7302 8.20164 27.8382C7.9669 27.9458 7.69187 27.9999 7.37571 27.9999Z" fill="#24A8E0"/>
<path d="M12.3706 27.2664H13.21C13.4987 27.2664 13.7662 27.2248 14.0121 27.1422C14.258 27.0599 14.4701 26.9403 14.6483 26.784C14.8266 26.6282 14.9653 26.4351 15.0649 26.2053C15.164 25.9755 15.2138 25.7158 15.2138 25.4265C15.2138 25.1238 15.164 24.8572 15.0649 24.6274C14.9653 24.3976 14.8266 24.2057 14.6483 24.0522C14.4701 23.8981 14.258 23.7814 14.0121 23.7008C13.7662 23.6202 13.4987 23.58 13.21 23.58H12.3706V27.2664ZM11.7005 22.9874H13.3451C13.652 22.9874 13.9589 23.0333 14.2662 23.1253C14.5731 23.2172 14.8503 23.3619 15.0988 23.5592C15.3467 23.7572 15.5479 24.0095 15.7012 24.3176C15.8548 24.6254 15.9312 24.9945 15.9312 25.4265C15.9312 25.8448 15.8548 26.2065 15.7012 26.5123C15.5479 26.8176 15.3467 27.0702 15.0988 27.2698C14.8503 27.4697 14.5731 27.6189 14.2662 27.7177C13.9589 27.8165 13.652 27.8655 13.3451 27.8655H11.7005V22.9874Z" fill="#24A8E0"/>
<path d="M19.709 27.8658H19.0389V23.5869H17.5023V22.9874H21.2459V23.5869H19.709V27.8658Z" fill="#24A8E0"/>
<path d="M23.903 22.9874H23.2327V27.8658H23.903V22.9874Z" fill="#24A8E0"/>
<path d="M27.0916 25.1238H27.8633C28.0211 25.1238 28.1679 25.1098 28.3034 25.0822C28.4385 25.0548 28.5571 25.0101 28.659 24.9478C28.7603 24.886 28.8403 24.8054 28.899 24.7066C28.9578 24.6078 28.9872 24.4853 28.9872 24.3381C28.9872 24.1914 28.9578 24.0684 28.899 23.9693C28.8403 23.8708 28.7628 23.7913 28.6654 23.7315C28.5683 23.672 28.4544 23.6296 28.3235 23.6042C28.1928 23.5789 28.0549 23.5666 27.9108 23.5666H27.0916V25.1238ZM27.0916 27.8658H26.4215V22.9874H27.9581C28.1884 22.9874 28.4069 23.0116 28.6148 23.0598C28.8224 23.1082 29.0039 23.1853 29.1598 23.2907C29.3154 23.3969 29.4385 23.5353 29.5288 23.7073C29.6186 23.8802 29.664 24.0898 29.664 24.3381C29.664 24.6966 29.5557 24.9859 29.3391 25.2063C29.1226 25.4265 28.8425 25.5669 28.4995 25.627L29.84 27.8658H29.0277L27.8093 25.6959H27.0916V27.8658Z" fill="#24A8E0"/>
<path d="M36.0491 25.4221C36.0491 25.1556 36.006 24.9041 35.9204 24.6675C35.8345 24.4314 35.7128 24.2233 35.5547 24.0439C35.3966 23.8647 35.2061 23.7235 34.9826 23.6204C34.7593 23.5167 34.5078 23.4652 34.228 23.4652C33.9527 23.4652 33.7031 23.5167 33.4795 23.6204C33.2565 23.7235 33.0668 23.8647 32.9113 24.0439C32.7557 24.2233 32.6346 24.4314 32.549 24.6675C32.4633 24.9041 32.4203 25.1556 32.4203 25.4221C32.4203 25.6929 32.4633 25.9481 32.549 26.187C32.6346 26.4257 32.7566 26.6338 32.9146 26.8104C33.0724 26.9869 33.2621 27.1259 33.4835 27.227C33.7042 27.3284 33.9527 27.3791 34.228 27.3791C34.5033 27.3791 34.7537 27.3284 34.9795 27.227C35.205 27.1259 35.3966 26.9869 35.5547 26.8104C35.7128 26.6338 35.8345 26.4257 35.9204 26.187C36.006 25.9481 36.0491 25.6929 36.0491 25.4221ZM36.7735 25.4221C36.7735 25.7989 36.7088 26.1443 36.5801 26.459C36.4514 26.7739 36.2746 27.0447 36.0491 27.272C35.8233 27.4995 35.5547 27.6761 35.2433 27.8028C34.9319 27.9292 34.5934 27.9919 34.228 27.9919C33.8626 27.9919 33.5251 27.9292 33.216 27.8028C32.9068 27.6761 32.6393 27.4995 32.4138 27.272C32.1878 27.0447 32.0118 26.7739 31.8856 26.459C31.7591 26.1443 31.6962 25.7989 31.6962 25.4221C31.6962 25.0408 31.7591 24.6931 31.8856 24.3779C32.0118 24.0635 32.1878 23.7947 32.4138 23.5723C32.6393 23.349 32.9068 23.1756 33.216 23.052C33.5251 22.9278 33.8626 22.8655 34.228 22.8655C34.5934 22.8655 34.9319 22.9278 35.2433 23.052C35.5547 23.1756 35.8233 23.349 36.0491 23.5723C36.2746 23.7947 36.4514 24.0635 36.5801 24.3779C36.7088 24.6931 36.7735 25.0408 36.7735 25.4221Z" fill="#24A8E0"/>
<path d="M39.7035 27.2595H41.8424V27.8658H39.0331V22.9874H39.7035V27.2595Z" fill="#24A8E0"/>
<path d="M44.5914 25.3388C44.5914 25.4584 44.5489 25.5638 44.4627 25.6555C44.3771 25.7477 44.2688 25.7936 44.1381 25.7936C44.0117 25.7936 43.9045 25.7486 43.8161 25.6589C43.7283 25.57 43.6843 25.465 43.6843 25.3454C43.6843 25.2218 43.7271 25.1153 43.813 25.0253C43.8984 24.9356 44.0069 24.8909 44.1381 24.8909C44.2688 24.8909 44.3771 24.9344 44.4627 25.0221C44.5489 25.1087 44.5914 25.2147 44.5914 25.3388Z" fill="#24A8E0"/>
<path d="M47.8797 26.0675H49.6739L48.7806 23.7797L47.8797 26.0675ZM47.1626 27.8655H46.4175L48.496 22.9874H49.1048L51.163 27.8655H50.405L49.9173 26.6666H47.6427L47.1626 27.8655Z" fill="#24A8E0"/>
<path d="M53.8007 27.2595H55.9399V27.8658H53.1309V22.9874H53.8007V27.2595Z" fill="#24A8E0"/>
<path d="M59.0063 27.8658H58.3362V23.5869H56.7991V22.9874H60.5426V23.5869H59.0063V27.8658Z" fill="#24A8E0"/>
<path d="M66.4271 25.4221C66.4271 25.1556 66.3848 24.9041 66.2986 24.6675C66.2125 24.4314 66.091 24.2233 65.9327 24.0439C65.7752 23.8647 65.5846 23.7235 65.3608 23.6204C65.1381 23.5167 64.886 23.4652 64.6062 23.4652C64.3309 23.4652 64.0816 23.5167 63.8581 23.6204C63.6351 23.7235 63.4454 23.8647 63.2895 24.0439C63.1337 24.2233 63.0131 24.4314 62.9275 24.6675C62.8419 24.9041 62.7985 25.1556 62.7985 25.4221C62.7985 25.6929 62.8419 25.9481 62.9275 26.187C63.0131 26.4257 63.1345 26.6338 63.2929 26.8104C63.451 26.9869 63.6404 27.1259 63.8614 27.227C64.0827 27.3284 64.3309 27.3791 64.6062 27.3791C64.8818 27.3791 65.1316 27.3284 65.3577 27.227C65.5835 27.1259 65.7754 26.9869 65.9327 26.8104C66.091 26.6338 66.2125 26.4257 66.2986 26.187C66.3848 25.9481 66.4271 25.6929 66.4271 25.4221ZM67.1514 25.4221C67.1514 25.7989 67.0874 26.1443 66.9587 26.459C66.8302 26.7739 66.6526 27.0447 66.4271 27.272C66.2016 27.4995 65.9327 27.6761 65.6216 27.8028C65.3104 27.9292 64.9722 27.9919 64.6059 27.9919C64.2411 27.9919 63.9031 27.9292 63.5939 27.8028C63.2853 27.6761 63.017 27.4995 62.7918 27.272C62.5657 27.0447 62.39 26.7739 62.2633 26.459C62.1374 26.1443 62.0739 25.7989 62.0739 25.4221C62.0739 25.0408 62.1374 24.6931 62.2633 24.3779C62.39 24.0635 62.5657 23.7947 62.7918 23.5723C63.017 23.349 63.2851 23.1756 63.5939 23.052C63.9031 22.9278 64.2411 22.8655 64.6059 22.8655C64.9722 22.8655 65.3104 22.9278 65.6216 23.052C65.9327 23.1756 66.2013 23.349 66.4271 23.5723C66.6526 23.7947 66.8302 24.0635 66.9587 24.3779C67.0874 24.6931 67.1514 25.0408 67.1514 25.4221Z" fill="#24A8E0"/>
<path d="M73.2707 26.0675H75.0644L74.1711 23.7797L73.2704 26.0675H73.2707ZM72.5531 27.8655H71.808L73.8868 22.9874H74.4962L76.5535 27.8655H75.7955L75.3078 26.6666H73.034L72.5531 27.8655Z" fill="#24A8E0"/>
<path d="M79.1909 27.2664H80.0303C80.319 27.2664 80.5865 27.2248 80.8327 27.1422C81.0781 27.0599 81.2907 26.9403 81.469 26.784C81.6472 26.6282 81.786 26.4351 81.8853 26.2053C81.9843 25.9755 82.0341 25.7158 82.0341 25.4265C82.0341 25.1238 81.9843 24.8572 81.8856 24.6274C81.786 24.3976 81.6475 24.2057 81.4692 24.0522C81.2907 23.8981 81.0784 23.7814 80.8327 23.7008C80.5865 23.6202 80.319 23.58 80.0303 23.58H79.1909V27.2664ZM78.5211 22.9874H80.1657C80.4732 22.9874 80.7799 23.0333 81.0865 23.1253C81.3937 23.2172 81.671 23.3619 81.9191 23.5592C82.1679 23.7572 82.3682 24.0095 82.5218 24.3176C82.6751 24.6254 82.7524 24.9945 82.7524 25.4265C82.7524 25.8448 82.6751 26.2065 82.5215 26.5123C82.3682 26.8176 82.1679 27.0702 81.9189 27.2698C81.671 27.4697 81.3937 27.6189 81.0865 27.7177C80.7799 27.8165 80.4732 27.8655 80.1657 27.8655H78.5211V22.9874Z" fill="#24A8E0"/>
<path d="M85.6888 22.9874H85.0187V27.8658H85.6888V22.9874Z" fill="#24A8E0"/>
<path d="M91.8263 23.9954C91.6819 23.8354 91.4984 23.7061 91.2749 23.6099C91.0516 23.5133 90.8023 23.4652 90.5264 23.4652C90.2466 23.4652 89.9945 23.5165 89.7688 23.6204C89.5427 23.7235 89.351 23.8647 89.193 24.0439C89.0352 24.2233 88.9132 24.4311 88.8276 24.6672C88.7419 24.9039 88.6986 25.1556 88.6986 25.4221C88.6986 25.6929 88.7419 25.9478 88.8276 26.1867C88.9132 26.4257 89.0352 26.6338 89.193 26.8104C89.351 26.9869 89.5449 27.1259 89.7752 27.227C90.0055 27.3284 90.2629 27.3791 90.5471 27.3791C90.7729 27.3791 90.9802 27.3583 91.1699 27.3167C91.3596 27.2754 91.5244 27.2159 91.6643 27.1379V25.7804H90.6011V25.2014H92.3277V27.565C92.0748 27.7026 91.7992 27.8085 91.5018 27.8817C91.2035 27.9554 90.8787 27.9919 90.5264 27.9919C90.1521 27.9919 89.8082 27.929 89.4943 27.8028C89.1809 27.6761 88.9109 27.4995 88.6854 27.272C88.4596 27.0447 88.2839 26.7739 88.1572 26.4587C88.0313 26.1443 87.9678 25.7989 87.9678 25.4221C87.9678 25.0408 88.0321 24.6931 88.1608 24.3779C88.2892 24.0632 88.4677 23.7947 88.6955 23.5723C88.9235 23.3487 89.193 23.1756 89.5046 23.052C89.8158 22.9278 90.154 22.8655 90.52 22.8655C90.9036 22.8655 91.2458 22.9233 91.546 23.0378C91.8456 23.1528 92.0952 23.3069 92.2936 23.4999L91.8263 23.9954Z" fill="#24A8E0"/>
<path d="M95.495 27.2595H98V27.8658H94.825V22.9874H97.8981V23.5869H95.495V25.0474H97.756V25.6335H95.495V27.2595Z" fill="#24A8E0"/>
<path d="M7.8579 14.1833C8.3383 13.8661 8.57808 13.3882 8.57808 12.7518C8.57808 11.5418 7.63267 10.9367 5.74215 10.9367H3.84351V14.6606H5.9713C6.74883 14.6606 7.37751 14.502 7.8579 14.1833ZM3.84351 7.67719H5.85602C6.46624 7.67719 6.93908 7.48753 7.27483 7.10708C7.61001 6.72663 7.77788 6.25705 7.77788 5.69862C7.77788 5.12481 7.58679 4.68598 7.206 4.38298C6.82493 4.08084 6.29893 3.92935 5.62772 3.92935H3.84351V7.67719ZM11.266 10.413C11.7609 11.0873 12.0088 11.8676 12.0088 12.7518C12.0088 14.49 11.4484 15.7672 10.3276 16.5813C9.20704 17.3958 7.8081 17.8033 6.13105 17.8033H0.527466V0.671021H5.4674C7.25132 0.671021 8.6539 1.03923 9.67624 1.77621C10.6977 2.51376 11.2086 3.58022 11.2086 4.97644C11.2086 5.83018 11.0327 6.57912 10.6829 7.22298C10.3312 7.86741 9.83628 8.38399 9.19557 8.77127C10.0803 9.19074 10.7697 9.73721 11.266 10.413Z" fill="#808285"/>
<path d="M26.8023 0.671021V3.92935H18.6373V7.58407H25.8648V10.8435H18.6373V14.545H27.123V17.8033H15.3207V0.671021H26.8023Z" fill="#808285"/>
<path d="M37.7765 11.616L36.1526 7.4487L34.4602 11.616H37.7765ZM38.8741 14.456H33.294L31.9211 17.8077H28.6512L36.2441 0H36.4274L44.0205 17.8077H40.1779L38.8741 14.456Z" fill="#808285"/>
<path d="M55.9026 17.4584C54.9725 17.8152 53.9586 17.9935 52.861 17.9935C51.1067 17.9935 49.5824 17.6068 48.2867 16.8299C46.9905 16.0539 45.9997 15.0099 45.3134 13.6989C44.6274 12.3878 44.2838 10.948 44.2838 9.38064C44.2838 7.65807 44.6274 6.12203 45.3134 4.77194C45.9997 3.42156 46.9603 2.37048 48.1952 1.61727C49.4305 0.865193 50.8557 0.488159 52.4721 0.488159C53.4936 0.488159 54.4387 0.627981 55.308 0.907624C56.1773 1.1867 56.9395 1.53582 57.5953 1.95472L56.2912 5.14356C55.087 4.21294 53.852 3.74791 52.5862 3.74791C51.732 3.74791 50.9321 3.98825 50.1845 4.46894C49.4383 4.9502 48.843 5.60603 48.4012 6.43584C47.9585 7.26651 47.7378 8.18603 47.7378 9.19468C47.7378 10.297 47.9434 11.263 48.3556 12.0922C48.7669 12.9234 49.3538 13.5707 50.116 14.036C50.8784 14.5019 51.7709 14.7349 52.7922 14.7349C53.6159 14.7349 54.3548 14.5993 55.0112 14.3271C55.6664 14.056 56.1849 13.7336 56.5662 13.3609L57.938 16.3871C57.5113 16.745 56.8326 17.1016 55.9026 17.4584Z" fill="#808285"/>
<path d="M97.0168 0.675472V18.5063H96.9259L85.1471 7.68193L85.2157 17.8077H81.8538V0H81.9909L93.7467 10.9872L93.6779 0.675472H97.0168Z" fill="#808285"/>
<path d="M74.8456 16.4042C77.104 14.6981 78.5293 12.3585 78.6367 9.63692C78.7464 6.91339 77.5195 4.40885 75.4029 2.57636C75.2756 2.45904 75.1452 2.39952 74.9471 2.39269C74.7485 2.383 74.6131 2.4317 74.474 2.53649L73.5166 3.25981C73.2458 3.46512 73.2326 3.79289 73.4872 4.02128C75.0887 5.45253 76.0725 7.40149 75.9868 9.52615C75.9023 11.6485 74.7647 13.5098 73.0524 14.8023C72.7793 15.0091 72.7668 15.3369 73.0244 15.565L73.9206 16.3646C74.0462 16.4811 74.1783 16.5403 74.3764 16.5488C74.5776 16.556 74.7748 16.5101 74.8456 16.4042Z" fill="#24A8E0"/>
<path d="M73.3264 9.40753C73.388 7.88202 72.7142 6.54674 71.5579 5.51503C71.3036 5.28664 70.9046 5.26955 70.6284 5.47772L69.6718 6.19989C69.399 6.40721 69.3842 6.73327 69.6408 6.96307C70.347 7.59241 70.7098 8.42736 70.676 9.29761C70.6405 10.1684 70.1438 10.9669 69.4581 11.5359C69.1819 11.7426 69.171 12.0713 69.4262 12.2988L70.3221 13.1001C70.5809 13.3291 70.979 13.3467 71.2512 13.1391C72.4834 12.2068 73.2657 10.933 73.3264 9.40753Z" fill="#24A8E0"/>
<path d="M70.0215 14.7346C69.0461 14.7346 68.1583 14.4905 67.3573 14.001C66.5571 13.5124 65.9242 12.8488 65.459 12.0113C64.9937 11.173 64.7612 10.2572 64.7612 9.26445C64.7612 8.24014 64.9898 7.30923 65.4472 6.47059C65.9052 5.63251 66.5255 4.96985 67.3117 4.48034C68.0971 3.99139 68.97 3.74762 69.9302 3.74762C70.4669 3.74762 70.973 3.83192 71.4548 3.98427L74.3028 1.75652C74.2667 1.73402 74.2325 1.70925 74.1956 1.68704C72.8767 0.887975 71.4475 0.488159 69.9079 0.488159C68.3673 0.488159 66.9379 0.887975 65.6193 1.68704C64.3006 2.48638 63.2553 3.56082 62.4856 4.91091C61.7154 6.261 61.3307 7.71246 61.3307 9.26445C61.3307 10.8475 61.7154 12.3055 62.4856 13.6402C63.2553 14.9752 64.2959 16.0343 65.6075 16.818C66.9186 17.6019 68.3528 17.9932 69.9079 17.9932C71.3384 17.9932 72.6727 17.6509 73.9125 16.974L71.3698 14.5526C70.9406 14.6736 70.4915 14.7346 70.0215 14.7346Z" fill="#808285"/>
</svg>
